<?xml version="1.0" encoding="utf-8"?><!-- Uploaded to: SVG Repo, www.svgrepo.com, Generator: SVG Repo Mixer Tools -->
<svg width="800px" height="800px" viewBox="0 0 652 652" xmlns="http://www.w3.org/2000/svg">
   <circle cx="326" cy="326" r="326" style="fill:#424242"/>
   <g>
	<path class="st0" d="M42.2,331.6l-21.4,0c0,0-0.7,11.5,2.7,16c3.3,4.5,8.8,6.7,15.1,7.3c6.3,0.7,26.4,1.5,36.9,0
		c10.5-1.5,22.1-2.3,22.1-19.3c0-10.9-3.7-18-21.6-19.3c-19.5-1.4-28.4-2.2-28.4-2.2s-5.1,0-4.6-4.9c0.2-2.2,2-3.6,3.1-3.9
		c2.4-0.9,18.5-1.2,23.3-0.5c2.3,0.3,3.3,0.2,3.8,3c0,0.2,0,5.2,0,5.2l22,0.2c0,0,1-8.6-4.2-15.5c-1.9-2.5-9.1-7.2-20.8-7.8
		c-11.6-0.7-34.1,0.2-40.7,4.2c-6.7,4-8.6,11.7-8.6,17c0,5.3,3.4,11.4,8,14.5c3.2,2.1,6.4,3.3,10.4,3.6c3.1,0.3,25,1.5,28.6,1.8
		c3.7,0.3,8,0,8.1,5.3c0.1,3.8-3.2,4.7-3.2,4.7s-1.4,0.9-13.7,0.9c-1.3,0-12.7-0.6-12.7-0.6s-3.6-0.5-3.8-3
		C42.2,335.5,42.1,331.6,42.2,331.6" fill="#fff"/>
</g>
<polygon class="st1" points="213.7,355.1 213.7,290.2 245.7,290.2 280.5,336.4 278.8,290.2 301.7,290.2 301.7,355 268.9,355 
	234.3,309.2 235.9,355 " fill="#fff"/>
<rect x="324.3" y="290.2" class="st1" width="22.1" height="64.9" fill="#fff"/>
<polygon class="st1" points="368.1,355.1 368.1,290.2 432,290.2 432,304.8 390,304.8 390,315.6 429.3,315.6 429.3,330.2 
	390.1,330.2 390.1,355.1 " fill="#fff"/>
<polygon class="st1" points="449.3,355.1 449.3,290.2 515.1,290.2 515.1,304.8 471.4,304.8 471.4,315 512.6,315 512.6,329 
	471.4,329 471.4,340.4 515.1,340.4 515.1,355.1 " fill="#fff"/>
<g>
	<path class="st1" d="M194.6,319.6v13.8c0,9.9-7,18.1-16.4,20.3c-0.4,0.1-0.8,0.1-1.2,0.2l0,0c0,0-0.3,0-0.7,0.1
		c-0.4,0.1-0.8,0.1-1.2,0.1c-4.4,0.5-14.9,1.5-21.2,1.6c-6.4,0-16.5-1.1-20.5-1.6c-11-0.8-19.7-9.8-19.7-20.8v-7.8h0v-13.8
		c0-9.9,7-18.1,16.4-20.3c0.4-0.1,0.8-0.1,1.2-0.2l0,0c0,0,0.3,0,0.7-0.1c0.4-0.1,0.8-0.1,1.2-0.1c4.4-0.5,14.9-1.5,21.2-1.6
		c6.4,0,16.5,1.1,20.5,1.6c11,0.8,19.7,9.8,19.7,20.8L194.6,319.6L194.6,319.6 M172.4,314.1c-0.4-7.3-3.1-8.5-6.4-9.2
		c-2.7-0.6-9.7-0.7-11.7-0.7h0H154h-0.3c-2,0-9,0.1-11.7,0.7c-3.2,0.7-6,1.9-6.4,9.2c-0.3,4.7-0.2,7.2-0.2,8.4
		c-0.1,1.2-0.1,3.7,0.2,8.5c0.4,7.3,3.1,8.5,6.4,9.2c2.7,0.6,9.7,0.7,11.7,0.7v0c0,0,0.1,0,0.3,0c0.2,0,0.3,0,0.3,0l0,0
		c2,0,9-0.1,11.7-0.7c3.2-0.7,6-1.9,6.4-9.2c0.3-4.7,0.2-7.3,0.2-8.5C172.6,321.4,172.6,318.9,172.4,314.1" fill="#fff"/>
</g>
<polygon class="st1" points="555,322.1 523.6,355.1 549.8,355.1 572.1,331 593.5,355.1 620.8,355.1 589,322.1 618.3,290.2 
591.8,290.2 571.9,312.6 552.1,290.2 525.9,290.2 " fill="#fff"/>
</svg>